{"title":"Rinako - Hello, Kitty! (Uncensored) 2014 Web-DL","uid":10824605,"size":974663598,"categoryP":"porn","categoryS":"movie_clips","magnet":"?xt=urn:btih:de7150a1580ff28489fadecf0fb2250305d27a63&amp;dn=Rinako+-+Hello%2C+Kitty%21+%28Uncensored%29+2014+Web-DL&amp;tr=udp%3A%2F%2Ftracker.openbittorrent.com%3A80&amp;tr=udp%3A%2F%2Fopen.demonii.com%3A1337&amp;tr=udp%3A%2F%2Ftracker.coppersurfer.tk%3A6969&amp;tr=udp%3A%2F%2Fexodus.desync.com%3A6969","seeders":1,"leechers":2,"uploader":"ThousandPeers","files":-1,"time":1408570151,"description":"Format                                   : Windows Media\nFile size                                : 928 MiB\nDuration                                 : 1h 4mn\nOverall bit rate mode                    : Constant\nOverall bit rate                         : 2 027 Kbps\nMaximum Overall bit rate                 : 2 071 Kbps\nEncoded date                             : UTC 2014-06-06 08:04:26.244\n\nVideo\nID                                       : 1\nFormat                                   : VC-1\nFormat profile                           : MP@HL\nCodec ID                                 : WMV3\nCodec ID/Info                            : Windows Media Video 9\nCodec ID/Hint                            : WMV3\nDescription of the codec                 : Windows Media Video 9\nDuration                                 : 1h 4mn\nBit rate mode                            : Constant\nBit rate                                 : 1 920 Kbps\nWidth                                    : 704 pixels\nHeight                                   : 396 pixels\nDisplay aspect ratio                     : 16:9\nFrame rate                               : 60.000 fps\nBit depth                                : 8 bits\nScan type                                : Progressive\nCompression mode                         : Lossy\nBits/(Pixel*Frame)                       : 0.115\nStream size                              : 879 MiB (95%)\nLanguage                                 : Russian\n\nAudio\nID                                       : 2\nFormat                                   : WMA\nFormat version                           : Version 2\nCodec ID                                 : 161\nCodec ID/Info                            : Windows Media Audio\nDescription of the codec                 : Windows Media Audio 9.2 - 128 kbps, 48 kHz, stereo 1-pass CBR\nDuration                                 : 1h 4mn\nBit rate mode                            : Constant\nBit rate                                 : 128 Kbps\nChannel(s)                               : 2 channels\nSampling rate                            : 48.0 KHz\nBit depth                                : 16 bits\nStream size                              : 58.6 MiB (6%)\nLanguage                                 : Russian","torrent":{"xt":"urn:btih:de7150a1580ff28489fadecf0fb2250305d27a63","amp;dn":"Rinako+-+Hello%2C+Kitty%21+%28Uncensored%29+2014+Web-DL","amp;tr":["udp%3A%2F%2Ftracker.openbittorrent.com%3A80","udp%3A%2F%2Fopen.demonii.com%3A1337","udp%3A%2F%2Ftracker.coppersurfer.tk%3A6969","udp%3A%2F%2Fexodus.desync.com%3A6969"],"infoHash":"de7150a1580ff28489fadecf0fb2250305d27a63","infoHashBuffer":{"type":"Buffer","data":[222,113,80,161,88,15,242,132,137,250,222,207,15,178,37,3,5,210,122,99]},"announce":[],"urlList":[]}}